<svg width="136" height="51" viewBox="0 0 136 51" fill="none" xmlns="http://www.w3.org/2000/svg">
<path d="M25.5 51C39.5833 51 51 39.5833 51 25.5C51 11.4167 39.5833 0 25.5 0C11.4167 0 0 11.4167 0 25.5C0 39.5833 11.4167 51 25.5 51Z" fill="#FDF300"/>
<path d="M15.5 20C17.9853 20 20 17.9853 20 15.5C20 13.0147 17.9853 11 15.5 11C13.0147 11 11 13.0147 11 15.5C11 17.9853 13.0147 20 15.5 20Z" fill="white"/>
<path d="M26.44 16.2H36.52C38.2 16.2 39.416 16.5839 40.168 17.3519C40.936 18.1039 41.32 19.32 41.32 21V23.4C41.32 25.08 40.936 26.304 40.168 27.072C39.416 27.824 38.2 28.2 36.52 28.2H30.76V33H26.44V16.2ZM37 21C37 20.04 36.52 19.5599 35.56 19.5599H30.76V24.84H35.56C36.52 24.84 37 24.36 37 23.4V21ZM43.4791 16.2H53.5591C55.2391 16.2 56.4551 16.5839 57.2071 17.3519C57.9751 18.1039 58.3591 19.32 58.3591 21V23.16C58.3591 24.488 58.1351 25.52 57.6871 26.256C57.2551 26.992 56.5591 27.4799 55.5991 27.7199L58.5991 33H53.9191L51.1591 27.9599H47.7991V33H43.4791V16.2ZM54.0391 21C54.0391 20.04 53.5591 19.5599 52.5991 19.5599H47.7991V24.6H52.5991C53.5591 24.6 54.0391 24.12 54.0391 23.16V21ZM68.6725 33H60.0325V29.6399H62.1925V19.5599H60.0325V16.2H68.6725V19.5599H66.5125V29.6399H68.6725V33ZM85.2306 23.6399L81.8706 29.6399H78.5106L75.1506 23.6399V33H70.8306V16.2H75.3906L80.1906 25.08L84.9906 16.2H89.5506V33H85.2306V23.6399ZM103.24 16.2H107.56V28.44C107.56 30.12 107.176 31.344 106.408 32.1119C105.656 32.864 104.44 33.24 102.76 33.24H97.24C95.56 33.24 94.336 32.864 93.568 32.1119C92.816 31.344 92.44 30.12 92.44 28.44V16.2H96.76V28.44C96.76 29.4 97.24 29.8799 98.2 29.8799H101.8C102.76 29.8799 103.24 29.4 103.24 28.44V16.2ZM109.936 29.52C114.32 29.76 117.288 29.8799 118.84 29.8799C119.208 29.8799 119.496 29.776 119.704 29.568C119.928 29.344 120.04 29.048 120.04 28.68V26.52H114.52C112.84 26.52 111.616 26.144 110.848 25.392C110.096 24.624 109.72 23.3999 109.72 21.7199V21C109.72 19.32 110.096 18.1039 110.848 17.3519C111.616 16.5839 112.84 16.2 114.52 16.2H122.944V19.5599H115.48C114.52 19.5599 114.04 20.04 114.04 21V21.4799C114.04 22.4399 114.52 22.92 115.48 22.92H119.8C121.368 22.92 122.52 23.288 123.256 24.024C123.992 24.76 124.36 25.912 124.36 27.4799V28.68C124.36 30.248 123.992 31.4 123.256 32.136C122.52 32.872 121.368 33.24 119.8 33.24C118.984 33.24 118.12 33.224 117.208 33.192L115 33.096C113.368 33.016 111.68 32.9039 109.936 32.7599V29.52Z" fill="black"/>
<path d="M29.55 41.1H28.25L27.25 39.3V42H25.5V36.7H27.35L28.9 39.5L30.45 36.7H32.3V42H30.55V39.3L29.55 41.1ZM35.3527 37.85C35.0861 37.85 34.9527 37.9833 34.9527 38.25V38.8H36.6527V38.25C36.6527 37.9833 36.5194 37.85 36.2527 37.85H35.3527ZM38.2027 41.9C36.9161 42.0333 35.7494 42.1 34.7027 42.1C34.2494 42.1 33.8861 41.9633 33.6127 41.69C33.3394 41.4167 33.2027 41.0533 33.2027 40.6V38.2C33.2027 37.7 33.3427 37.31 33.6227 37.03C33.9094 36.7433 34.3027 36.6 34.8027 36.6H36.8027C37.3027 36.6 37.6927 36.7433 37.9727 37.03C38.2594 37.31 38.4027 37.7 38.4027 38.2V40.05H34.9527V40.45C34.9527 40.55 34.9861 40.6333 35.0527 40.7C35.1194 40.7667 35.2027 40.8 35.3027 40.8C35.9627 40.8 36.9294 40.75 38.2027 40.65V41.9ZM40.9488 37.6C41.5955 37.4667 42.1622 37.4 42.6488 37.4H43.0988C43.5522 37.4 43.9155 37.5367 44.1888 37.81C44.4622 38.0833 44.5988 38.4467 44.5988 38.9V40.5C44.5988 41 44.4555 41.3933 44.1688 41.68C43.8888 41.96 43.4988 42.1 42.9988 42.1H40.7988C40.2988 42.1 39.9055 41.96 39.6188 41.68C39.3388 41.3933 39.1988 41 39.1988 40.5V36.95C39.1988 36.47 39.3588 36.0667 39.6788 35.74C40.0055 35.4133 40.4455 35.2167 40.9988 35.15L44.3988 34.75L44.5488 36.15L41.4488 36.5C41.1155 36.54 40.9488 36.7067 40.9488 37V37.6ZM42.4488 40.75C42.7155 40.75 42.8488 40.6167 42.8488 40.35V39.1C42.8488 39 42.8155 38.9167 42.7488 38.85C42.6822 38.7833 42.5988 38.75 42.4988 38.75H42.1488C41.8888 38.75 41.6555 38.7633 41.4488 38.79C41.2422 38.8167 41.0755 38.8367 40.9488 38.85V40.35C40.9488 40.6167 41.0822 40.75 41.3488 40.75H42.4488ZM47.4523 37.85C47.1857 37.85 47.0523 37.9833 47.0523 38.25V38.8H48.7523V38.25C48.7523 37.9833 48.619 37.85 48.3523 37.85H47.4523ZM50.3023 41.9C49.0157 42.0333 47.849 42.1 46.8023 42.1C46.349 42.1 45.9857 41.9633 45.7123 41.69C45.439 41.4167 45.3023 41.0533 45.3023 40.6V38.2C45.3023 37.7 45.4423 37.31 45.7223 37.03C46.009 36.7433 46.4023 36.6 46.9023 36.6H48.9023C49.4023 36.6 49.7923 36.7433 50.0723 37.03C50.359 37.31 50.5023 37.7 50.5023 38.2V40.05H47.0523V40.45C47.0523 40.55 47.0857 40.6333 47.1523 40.7C47.219 40.7667 47.3023 40.8 47.4023 40.8C48.0623 40.8 49.029 40.75 50.3023 40.65V41.9ZM51.9984 42.1C51.7118 42.1 51.3784 42.0667 50.9984 42V40.7H51.3984C51.6518 40.7 51.7851 40.5667 51.7984 40.3L51.9984 36.7H56.7984V42H55.0484V38.05H53.6484L53.4984 40.6C53.4718 41.0533 53.3218 41.4167 53.0484 41.69C52.7751 41.9633 52.4251 42.1 51.9984 42.1ZM57.7949 42V36.7H59.5449V38.35H61.5949C62.0483 38.35 62.4116 38.4867 62.6849 38.76C62.9583 39.0333 63.0949 39.3967 63.0949 39.85V40.5C63.0949 40.9533 62.9583 41.3167 62.6849 41.59C62.4116 41.8633 62.0483 42 61.5949 42H57.7949ZM60.9949 40.75C61.0949 40.75 61.1783 40.7167 61.2449 40.65C61.3116 40.5833 61.3449 40.5 61.3449 40.4V39.95C61.3449 39.85 61.3116 39.7667 61.2449 39.7C61.1783 39.6333 61.0949 39.6 60.9949 39.6H59.5449V40.75H60.9949ZM67.341 38.65V36.7H69.091V42H67.341V40H65.541V42H63.791V36.7H65.541V38.65H67.341ZM72.1898 40.7C72.5432 40.7 72.9432 40.6333 73.3898 40.5V39.9H71.9398C71.8398 39.9 71.7565 39.9333 71.6898 40C71.6232 40.0667 71.5898 40.15 71.5898 40.25V40.35C71.5898 40.45 71.6232 40.5333 71.6898 40.6C71.7565 40.6667 71.8398 40.7 71.9398 40.7H72.1898ZM70.3398 36.8C71.5598 36.6667 72.6598 36.6 73.6398 36.6C74.0932 36.6 74.4565 36.7367 74.7298 37.01C75.0032 37.2833 75.1398 37.6467 75.1398 38.1V42H73.5898L73.4898 41.5C73.1765 41.7067 72.8532 41.86 72.5198 41.96C72.1932 42.0533 71.9165 42.1 71.6898 42.1H71.3398C70.8865 42.1 70.5232 41.9633 70.2498 41.69C69.9765 41.4167 69.8398 41.0533 69.8398 40.6V40.15C69.8398 39.6967 69.9765 39.3333 70.2498 39.06C70.5232 38.7867 70.8865 38.65 71.3398 38.65H73.3898V38.25C73.3898 38.15 73.3565 38.0667 73.2898 38C73.2232 37.9333 73.1398 37.9 73.0398 37.9C72.6065 37.9 72.1265 37.92 71.5998 37.96C71.0798 38 70.6598 38.03 70.3398 38.05V36.8ZM81.2371 36.7V42H79.4871V40.35H78.6371L77.6871 42H75.8371L76.8371 40.25C76.5571 40.15 76.3371 39.98 76.1771 39.74C76.0171 39.5 75.9371 39.2033 75.9371 38.85V38.2C75.9371 37.7467 76.0738 37.3833 76.3471 37.11C76.6204 36.8367 76.9838 36.7 77.4371 36.7H81.2371ZM78.0371 37.95C77.9371 37.95 77.8538 37.9833 77.7871 38.05C77.7204 38.1167 77.6871 38.2 77.6871 38.3V38.75C77.6871 38.85 77.7204 38.9333 77.7871 39C77.8538 39.0667 77.9371 39.1 78.0371 39.1H79.4871V37.95H78.0371ZM87.7363 40H86.9863V42H85.2363V36.7H86.9863V38.65H87.7863L88.3363 37.55C88.5363 37.1233 88.8497 36.8333 89.2763 36.68C89.4297 36.6267 89.5763 36.6 89.7163 36.6C89.943 36.6 90.1497 36.6167 90.3363 36.65L90.5863 36.7V38.05H90.2363C90.0097 38.05 89.843 38.15 89.7363 38.35L89.2363 39.35L90.7363 42H88.8363L87.7363 40ZM96.6324 40.5C96.6324 41 96.4891 41.3933 96.2024 41.68C95.9224 41.96 95.5324 42.1 95.0324 42.1H92.7324C92.2324 42.1 91.8391 41.96 91.5524 41.68C91.2724 41.3933 91.1324 41 91.1324 40.5V38.2C91.1324 37.7 91.2724 37.31 91.5524 37.03C91.8391 36.7433 92.2324 36.6 92.7324 36.6H95.0324C95.5324 36.6 95.9224 36.7433 96.2024 37.03C96.4891 37.31 96.6324 37.7 96.6324 38.2V40.5ZM94.8824 38.35C94.8824 38.0833 94.7491 37.95 94.4824 37.95H93.2824C93.0158 37.95 92.8824 38.0833 92.8824 38.35V40.35C92.8824 40.6167 93.0158 40.75 93.2824 40.75H94.4824C94.7491 40.75 94.8824 40.6167 94.8824 40.35V38.35ZM101.581 41.1H100.281L99.2813 39.3V42H97.5313V36.7H99.3813L100.931 39.5L102.481 36.7H104.331V42H102.581V39.3L101.581 41.1ZM110.634 36.7V42H108.884V38.05H107.084V42H105.334V36.7H110.634ZM113.733 40.7C114.086 40.7 114.486 40.6333 114.933 40.5V39.9H113.483C113.383 39.9 113.299 39.9333 113.233 40C113.166 40.0667 113.133 40.15 113.133 40.25V40.35C113.133 40.45 113.166 40.5333 113.233 40.6C113.299 40.6667 113.383 40.7 113.483 40.7H113.733ZM111.883 36.8C113.103 36.6667 114.203 36.6 115.183 36.6C115.636 36.6 115.999 36.7367 116.273 37.01C116.546 37.2833 116.683 37.6467 116.683 38.1V42H115.133L115.033 41.5C114.719 41.7067 114.396 41.86 114.063 41.96C113.736 42.0533 113.459 42.1 113.233 42.1H112.883C112.429 42.1 112.066 41.9633 111.793 41.69C111.519 41.4167 111.383 41.0533 111.383 40.6V40.15C111.383 39.6967 111.519 39.3333 111.793 39.06C112.066 38.7867 112.429 38.65 112.883 38.65H114.933V38.25C114.933 38.15 114.899 38.0667 114.833 38C114.766 37.9333 114.683 37.9 114.583 37.9C114.149 37.9 113.669 37.92 113.143 37.96C112.623 38 112.203 38.03 111.883 38.05V36.8ZM121.13 38.65V36.7H122.88V42H121.13V40H119.33V42H117.58V36.7H119.33V38.65H121.13ZM127.329 36.7H129.179V42H127.429V39.1L125.729 42H123.879V36.7H125.629V39.6L127.329 36.7ZM135.378 36.7V42H133.628V40.35H132.778L131.828 42H129.978L130.978 40.25C130.698 40.15 130.478 39.98 130.318 39.74C130.158 39.5 130.078 39.2033 130.078 38.85V38.2C130.078 37.7467 130.214 37.3833 130.488 37.11C130.761 36.8367 131.124 36.7 131.578 36.7H135.378ZM132.178 37.95C132.078 37.95 131.994 37.9833 131.928 38.05C131.861 38.1167 131.828 38.2 131.828 38.3V38.75C131.828 38.85 131.861 38.9333 131.928 39C131.994 39.0667 132.078 39.1 132.178 39.1H133.628V37.95H132.178Z" fill="black"/>
</svg>
